<?xml version="1.0" encoding="UTF-8"?>
<svg id="_Слой_2" data-name="Слой 2" xmlns="http://www.w3.org/2000/svg" viewBox="0 0 422.37 181.64">
  <defs>
    <style>
      .cls-1 {
        fill: #010101;
      }
    </style>
  </defs>
  <g id="Layer_1" data-name="Layer 1">
    <g>
      <g>
        <path class="cls-1" d="M.62,73.98c-1.59-5.87-.11-12.9,4.44-21.08,2.64-4.72,6.29-9.86,10.95-15.42,8.36-10.07,16.82-18.51,25.39-25.33C48.9,6.06,55.83,2.18,62.18,.5c1.59-.42,2.8-.58,3.65-.47,1.37,.21,2.54,.76,3.49,1.65,.95,.89,1.48,1.92,1.59,3.07,.21,3.57-2.22,9.02-7.3,16.36-3.17,4.62-8.04,10.28-14.6,16.99-5.4,5.67-9.31,8.5-11.74,8.5-.53,0-1.01-.16-1.43-.47-.42-.32-.63-.68-.63-1.1s.1-.63,.32-.63c.63,0,.95,.21,.95,.63,0,.31,.26,.42,.79,.31,1.69-.52,4.44-2.57,8.25-6.14,5.92-5.45,11.42-11.75,16.5-18.88,2.64-3.78,4.65-7.4,6.03-10.86,1.59-4.09,1.64-6.55,.16-7.4-1.9-1.15-6.08,.11-12.53,3.78-9.94,5.56-21.1,15.37-33.48,29.42-8.89,9.97-14.76,18.46-17.61,25.49-2.01,4.93-2.78,9.1-2.3,12.51,.48,3.41,2.04,5.48,4.68,6.21,2.75,.84,7.72-.47,14.92-3.93,8.46-4.09,18.93-11.17,31.42-21.24,.53-.42,.9-.52,1.11-.31,.32,.31,.1,.68-.63,1.1-.11,.11-2.38,1.81-6.82,5.11-4.44,3.3-8.25,6.06-11.42,8.26-3.17,2.2-5.77,3.88-7.77,5.04-3.6,1.99-6.56,3.52-8.89,4.56-2.33,1.05-4.89,1.89-7.7,2.52-2.8,.63-5.08,.39-6.82-.71s-2.99-3.07-3.73-5.9Z"/>
        <path class="cls-1" d="M50.28,62.03c-1.38-1.36-1.27-3.15,.32-5.35,1.16-1.99,2.86-3.46,5.08-4.41,1.27-.52,2.17-.52,2.7,0,.42,.31,.5,.84,.24,1.57-.27,.74-.77,1.36-1.51,1.89-1.48,1.05-3.01,1.68-4.6,1.89-.42,0-.79,.26-1.11,.79-1.27,2.2-.69,3.46,1.75,3.78,4.76,0,10.68-2.46,17.77-7.4l1.9-1.26c.1-.1,.26-.1,.48,0,.21,.11,.26,.26,.16,.47-3.92,3.15-8.36,5.66-13.33,7.55-4.97,1.89-8.25,2.04-9.84,.47Zm2.38-5.35c.74,0,1.8-.42,3.17-1.26,.95-.63,1.59-1.31,1.9-2.05,.1-.31,0-.47-.32-.47l-1.75,.94c-2.12,1.57-3.12,2.52-3.01,2.83Z"/>
        <path class="cls-1" d="M39.17,108.44c-.1,.21-.37,.1-.79-.31l-.48-.16,1.43-2.2,15.23-24.7c12.8-20.14,22.21-33.93,28.24-41.38,.74-.84,1.27-1.21,1.59-1.1,.32,0,.48,.05,.48,.16,0,.53-1.9,3.52-5.71,8.97l-3.81,5.35,.32,.47,.32,.63,2.86-1.57c2.75-1.36,4.76-2.15,6.03-2.36,1.06,0,1.69,.31,1.9,.94,.42,1.05-.53,3.09-2.86,6.14l-2.06,2.36c4.02,1.57,8.94,.74,14.76-2.52,1.8-1.05,3.65-2.25,5.55-3.62,.21-.21,.4-.26,.56-.16,.16,.11,.18,.26,.08,.47l-.79,.79c-2.33,1.79-4.28,3.04-5.87,3.78-5.5,2.83-10.58,3.52-15.23,2.05l-1.43,1.57c-3.81,3.57-6.4,4.15-7.78,1.73-.53-1.05-.53-2.41,0-4.09l.16-.79c-.21,.31-1.48,2.1-3.81,5.35-5.39,7.34-11.48,16.63-18.25,27.85-6.35,10.17-9.89,15.63-10.63,16.36Zm33.96-44.21c.84,.21,1.85-.16,3.01-1.1,.32-.21,.77-.58,1.35-1.1,.58-.52,1.08-1,1.51-1.42l.48-.79c-1.38-.73-2.59-1.89-3.65-3.46-.11-.32-.42-.26-.95,.16-.53,.42-1.06,1.21-1.59,2.36-1.17,3.25-1.22,5.04-.16,5.35Zm7.14-5.19c.1,0,.4-.26,.87-.79,.48-.52,1.03-1.18,1.67-1.97,.63-.79,1.11-1.44,1.43-1.97,.63-.84,1.06-1.57,1.27-2.2,.21-.52,.26-.84,.16-.94-.32-.32-2.06,.26-5.24,1.73-2.54,1.36-3.81,2.31-3.81,2.83,0,.31,.45,.94,1.35,1.89,.9,.94,1.67,1.42,2.3,1.42Z"/>
        <path class="cls-1" d="M122.79,53.37c.42-.1,.69,0,.79,.32l-.63,.63-2.86,2.2-4.12,2.83-4.6,2.99c-.32,.11-.98,.47-1.98,1.1-1.01,.63-1.83,1.1-2.46,1.42-1.69,.94-3.2,1.5-4.52,1.65-1.32,.16-2.3-.05-2.94-.63-.63-.58-.79-1.44-.48-2.6,.32-1.26,1.27-2.78,2.86-4.56,1.27-1.26,3.12-2.78,5.55-4.56,1.8-1.15,2.8-2.05,3.01-2.67,.1-.42-.16-.58-.79-.47-2.01,.31-4.28,1.36-6.82,3.15-.11,0-.4,.21-.87,.63-.48,.42-.93,.74-1.35,.94l-.63,.31c-.32-.31-.42-.52-.32-.63,1.59-1.26,2.96-2.25,4.12-2.99,1.69-1.15,3.28-1.86,4.76-2.12,1.48-.26,2.43,.08,2.86,1.02,.42,.84-.9,2.47-3.97,4.88-4.87,3.78-7.3,6.56-7.3,8.34,0,.63,.21,1.05,.63,1.26,.42,.21,1.14,.13,2.14-.24,1-.37,1.88-.73,2.62-1.1,.74-.37,1.8-.92,3.17-1.65l2.7-1.57c1.06-.63,2.64-1.68,4.76-3.15l4.6-3.3c1.27-.94,1.96-1.42,2.06-1.42Z"/>
        <path class="cls-1" d="M118.34,62.03c-1.38-1.36-1.27-3.15,.32-5.35,1.16-1.99,2.86-3.46,5.08-4.41,1.27-.52,2.17-.52,2.7,0,.42,.31,.5,.84,.24,1.57-.27,.74-.77,1.36-1.51,1.89-1.48,1.05-3.01,1.68-4.6,1.89-.42,0-.79,.26-1.11,.79-1.27,2.2-.69,3.46,1.75,3.78,4.76,0,10.68-2.46,17.77-7.4l1.9-1.26c.1-.1,.26-.1,.48,0,.21,.11,.26,.26,.16,.47-3.92,3.15-8.36,5.66-13.33,7.55-4.97,1.89-8.25,2.04-9.84,.47Zm2.38-5.35c.74,0,1.8-.42,3.17-1.26,.95-.63,1.59-1.31,1.9-2.05,.1-.31,0-.47-.32-.47l-1.75,.94c-2.12,1.57-3.12,2.52-3.01,2.83Z"/>
        <path class="cls-1" d="M140.87,66.75c0-1.47,1.16-3.78,3.49-6.92l1.11-1.57-.16,.16c-.11,0-.29,.08-.56,.24-.26,.16-.5,.29-.71,.39-3.17,1.68-5.13,2.52-5.87,2.52-.42,0-.74-.1-.95-.31-.74-1.05-.05-2.88,2.06-5.51,2.22-3.04,3.97-4.82,5.24-5.35l.48-.16c.42,0,.74,.31,.95,.94,.21,.31-.53,1.26-2.22,2.83-.85,.74-1.72,1.6-2.62,2.6-.9,1-1.61,1.84-2.14,2.52-.53,.68-.74,1.08-.63,1.18,0,.11,.45-.02,1.35-.39,.9-.37,1.96-.87,3.17-1.5,1.21-.63,2.25-1.2,3.09-1.73,.95-.63,2.17-1.57,3.65-2.83,1.69-1.57,2.7-2.2,3.01-1.89,.32,.42,.37,.84,.16,1.26-.21,.42-1.17,1.42-2.86,2.99-4.55,4.51-7.19,7.71-7.93,9.6-.95,2.52,.9,2.73,5.55,.63,5.61-2.52,12.69-6.87,21.26-13.06,.32-.1,.58,0,.79,.32-3.07,2.52-6.82,5.09-11.27,7.71-5.39,3.46-9.47,5.66-12.22,6.61-3.49,1.36-5.24,.94-5.24-1.26Zm10.15-20.61c-.95-1.15-1.06-2.1-.32-2.83,.32-.31,.61-.44,.87-.39,.26,.05,.5,.16,.71,.31,.21,.16,.26,.34,.16,.55-.42,.94-.42,1.63,0,2.04,.42,.42,1.21,.58,2.38,.47,1.48-.21,2.22-.47,2.22-.79,0-.1,.05-.16,.16-.16,.21,0,.32,.16,.32,.47,0,.21-.05,.37-.16,.47-.63,.63-1.75,.94-3.33,.94-1.38,0-2.38-.37-3.01-1.1Z"/>
        <path class="cls-1" d="M190.53,66.75c0-1.47,1.16-3.78,3.49-6.92l1.11-1.57-.16,.16c-.11,0-.29,.08-.56,.24-.26,.16-.5,.29-.71,.39-3.17,1.68-5.13,2.52-5.87,2.52-.42,0-.74-.1-.95-.31-.74-1.05-.05-2.88,2.06-5.51,2.22-3.04,3.97-4.82,5.24-5.35l.48-.16c.42,0,.74,.31,.95,.94,.21,.31-.53,1.26-2.22,2.83-.85,.74-1.72,1.6-2.62,2.6-.9,1-1.61,1.84-2.14,2.52-.53,.68-.74,1.08-.63,1.18,0,.11,.45-.02,1.35-.39,.9-.37,1.96-.87,3.17-1.5,1.21-.63,2.25-1.2,3.09-1.73,.95-.63,2.17-1.57,3.65-2.83,1.69-1.57,2.7-2.2,3.01-1.89,.32,.42,.37,.84,.16,1.26-.21,.42-1.17,1.42-2.86,2.99-4.55,4.51-7.19,7.71-7.93,9.6-.95,2.41,.79,2.67,5.24,.79,5.61-2.41,12.69-6.77,21.26-13.06,.42-.21,.79-.16,1.11,.16-3.07,2.52-6.82,5.09-11.27,7.71-5.39,3.46-9.47,5.66-12.22,6.61-3.49,1.36-5.24,.94-5.24-1.26Z"/>
      </g>
      <g>
        <path class="cls-1" d="M177.55,157.72c-1.59-5.87-.11-12.9,4.44-21.08,2.64-4.72,6.29-9.86,10.95-15.42,8.36-10.07,16.82-18.51,25.39-25.33,7.51-6.08,14.44-9.96,20.79-11.64,1.59-.42,2.8-.58,3.65-.47,1.37,.21,2.54,.76,3.49,1.65,.95,.89,1.48,1.92,1.59,3.07,.21,3.57-2.22,9.02-7.3,16.36-3.17,4.62-8.04,10.28-14.6,16.99-5.4,5.67-9.31,8.5-11.74,8.5-.53,0-1.01-.16-1.43-.47-.42-.32-.63-.68-.63-1.1s.1-.63,.32-.63c.63,0,.95,.21,.95,.63,0,.31,.26,.42,.79,.31,1.69-.52,4.44-2.57,8.25-6.14,5.92-5.45,11.42-11.75,16.5-18.88,2.64-3.78,4.65-7.4,6.03-10.86,1.59-4.09,1.64-6.55,.16-7.4-1.9-1.15-6.08,.11-12.53,3.78-9.94,5.56-21.1,15.37-33.48,29.42-8.89,9.97-14.76,18.46-17.61,25.49-2.01,4.93-2.78,9.1-2.3,12.51,.48,3.41,2.04,5.48,4.68,6.21,2.75,.84,7.72-.47,14.92-3.93,8.46-4.09,18.93-11.17,31.42-21.24,.53-.42,.9-.52,1.11-.31,.32,.31,.1,.68-.63,1.1-.11,.11-2.38,1.81-6.82,5.11-4.44,3.3-8.25,6.06-11.42,8.26-3.17,2.2-5.77,3.88-7.77,5.04-3.6,1.99-6.56,3.52-8.89,4.56-2.33,1.05-4.89,1.89-7.7,2.52-2.8,.63-5.08,.39-6.82-.71s-2.99-3.07-3.73-5.9Z"/>
        <path class="cls-1" d="M250.53,147.96c1.69,.31,6.82-2.83,15.39-9.44,1.16-.94,2.01-1.52,2.54-1.73,.21-.1,.37-.08,.48,.08,.1,.16,.1,.29,0,.39-.21,.21-1.11,.94-2.7,2.2-.85,.63-1.88,1.39-3.09,2.28-1.22,.89-2.17,1.6-2.86,2.12-.69,.53-1.48,1.1-2.38,1.73-.9,.63-1.61,1.1-2.14,1.42-.53,.31-1.14,.66-1.83,1.02-.69,.37-1.24,.58-1.67,.63-.42,.05-.9,.11-1.43,.16-.53,.05-.98-.02-1.35-.24-.37-.21-.77-.52-1.19-.94-1.06-1.05-1.38-2.83-.95-5.35,.1-.31,.26-.79,.48-1.42,.21-.63,.34-1.07,.4-1.34,.05-.26,.02-.5-.08-.71-.85,.63-1.69,1.31-2.54,2.04-3.28,2.73-4.92,4.56-4.92,5.51,0,.21-.11,.31-.32,.31-.63,0-.85-.26-.63-.79,.21-.63,1.59-2.88,4.12-6.77,2.33-3.56,3.59-5.72,3.81-6.45,.1-.52,.05-.84-.16-.94-.21-.1-.69-.05-1.43,.16-4.02,.84-8.78,3.52-14.28,8.03-.53,.42-1.3,1.13-2.3,2.12-1.01,1-1.9,1.89-2.7,2.67-.79,.79-1.19,1.23-1.19,1.34l-.16,.32c-.1,.11-.29,.08-.56-.08-.26-.16-.4-.29-.4-.39,0-.63,1.75-2.99,5.24-7.08,1.27-1.47,2.33-2.62,3.17-3.46,1.06-1.05,1.8-1.47,2.22-1.26,.1,.11,.16,.26,.16,.47,0,.53-.69,1.47-2.06,2.83l-.32,.31c.21-.1,.74-.47,1.59-1.1,4.65-3.78,8.67-5.66,12.06-5.66,.95,0,1.69,.18,2.22,.55,.53,.37,.74,.92,.63,1.65-.11,.84-.9,2.26-2.38,4.25-.53,.63-1.01,1.26-1.43,1.89l-.16,.16c.21-.1,.37-.21,.48-.31,1.06-.73,1.8-1.1,2.22-1.1,.32,0,.56,.05,.71,.16,.16,.11,.24,.26,.24,.47v.55c0,.16-.08,.42-.24,.79-.16,.37-.24,.66-.24,.87-1.06,4.41-.42,6.77,1.9,7.08Z"/>
        <path class="cls-1" d="M263.54,145.76c-1.38-1.36-1.27-3.15,.32-5.35,1.16-1.99,2.86-3.46,5.08-4.41,1.27-.52,2.17-.52,2.7,0,.42,.31,.5,.84,.24,1.57-.27,.74-.77,1.36-1.51,1.89-1.48,1.05-3.01,1.68-4.6,1.89-.42,0-.79,.26-1.11,.79-1.27,2.2-.69,3.46,1.75,3.78,4.76,0,10.68-2.46,17.77-7.4l1.9-1.26c.1-.1,.26-.1,.48,0,.21,.11,.26,.26,.16,.47-3.92,3.15-8.36,5.66-13.33,7.55-4.97,1.89-8.25,2.04-9.84,.47Zm2.38-5.35c.74,0,1.8-.42,3.17-1.26,.95-.63,1.59-1.31,1.9-2.05,.1-.31,0-.47-.32-.47l-1.75,.94c-2.12,1.57-3.12,2.52-3.01,2.83Z"/>
        <path class="cls-1" d="M272.11,181.64c-.74,0-1.11-.53-1.11-1.57,0-1.57,2.33-6.19,6.98-13.85,4.65-7.66,10.05-15.73,16.18-24.23l3.33-4.72-1.59,.94c-4.66,3.15-7.93,4.35-9.84,3.62-.85-.31-1.11-1.31-.79-2.99,.32-.84,1.59-2.25,3.81-4.25,4.02-3.25,6.56-3.67,7.62-1.26,.42,.94,.37,1.84-.16,2.68l-.32,.63,.63-.31c1.8-1.15,3.75-2.99,5.87-5.51,6.35-8.18,10.58-12.95,12.69-14.32,.95-.63,1.59-.68,1.9-.16,.21,.74-.27,1.79-1.43,3.15-1.48,1.79-4.13,4.67-7.93,8.65-3.6,3.57-6.14,6.4-7.62,8.5l1.43-.63c.21-.21,.53-.42,.95-.63,3.28-1.89,5.5-2.83,6.66-2.83,.63,0,1.16,.29,1.59,.87,.42,.58,.58,1.23,.48,1.97-.11,1.26-1.17,2.94-3.17,5.04l-1.11,1.1,3.33,.47h.32c2.22,0,4.39-.47,6.51-1.42,.85-.42,1.56-.81,2.14-1.18,.58-.37,1.16-.76,1.75-1.18,.58-.42,1.13-.79,1.67-1.1,.53-.21,.79-.1,.79,.32-.11,.21-.4,.47-.87,.79-.48,.31-.77,.53-.87,.63-4.34,3.46-9.36,4.72-15.07,3.78-.53-.1-1.27,.11-2.22,.63-.85,.53-1.9,.84-3.17,.94-1.69,.11-2.75-.31-3.17-1.26-.21-.63-.16-1.42,.16-2.36l.32-1.1-.48,.47c-.85,.73-3.02,3.57-6.51,8.5-5.5,7.87-10.29,15.11-14.36,21.71-4.07,6.61-5.84,10.17-5.32,10.7,.11,.21,.16,.39,.16,.55s-.05,.24-.16,.24Zm14.92-40.75c.21,.21,1.85-.37,4.92-1.73,2.22-1.15,3.6-2.36,4.13-3.62,.32-1.05,.32-1.83,0-2.36-.42-.42-1.43-.31-3.01,.32-.63,.31-.9,.58-.79,.79,0,.21-.26,.42-.79,.63-.11,.11-.27,.21-.48,.31-.21,.11-.4,.21-.56,.31-.16,.11-.29,.21-.4,.31-.53,.53-.79,.68-.79,.47-.21-.21-.61,0-1.19,.63-.58,.63-1.01,1.34-1.27,2.12-.27,.79-.19,1.39,.24,1.81Zm16.18,1.57l1.11-.47c-1.69-1.36-2.65-2.36-2.86-2.99l-.48-.79c-.42,0-1.01,1.05-1.75,3.15-.63,1.16-.16,1.73,1.43,1.73l2.54-.63Zm2.06-1.42c.53,0,1.69-1.15,3.49-3.46,1.06-1.47,1.59-2.57,1.59-3.3,0-.31-.21-.47-.63-.47-.95,0-2.86,.79-5.71,2.36-.95,.53-1.56,.89-1.83,1.1-.26,.21-.37,.42-.32,.63,.05,.21,.24,.58,.56,1.1,.85,1.36,1.8,2.04,2.86,2.04Zm4.76-16.21c1.8-1.78,3.59-3.83,5.39-6.14,.53-.84,.79-1.31,.79-1.42-.11-.1-.61,.37-1.51,1.42-.9,1.05-2.04,2.41-3.41,4.09l-2.38,3.15c.1-.1,.48-.47,1.11-1.1Z"/>
        <path class="cls-1" d="M324.31,148.28c-.74-.42-1.11-1.2-1.11-2.36s.21-2.25,.63-3.3l.32-.79-.95,.47c-.53,.42-1.01,.74-1.43,.94-.21,.11-.58,.31-1.11,.63-.53,.31-.95,.58-1.27,.79-.74,.42-1.4,.39-1.98-.08-.58-.47-.71-1.18-.4-2.12,.42-1.05,1.56-2.31,3.41-3.78,1.85-1.47,3.52-2.41,5-2.83,1.27-.31,2.17-.05,2.7,.79,.21,.31,.37,.42,.48,.31,.53-.21,.9-.1,1.11,.31l-.16,.16c-.11,.21-.21,.39-.32,.55-.11,.16-.21,.34-.32,.55-2.12,2.1-3.49,3.99-4.12,5.67-.53,1.68-.48,2.78,.16,3.3,.95,.63,3.12,.26,6.51-1.1,3.49-1.36,7.83-3.99,13.01-7.87,1.8-1.36,2.64-1.73,2.54-1.1-.11,.42-1.56,1.63-4.36,3.62-2.8,1.99-5.26,3.57-7.38,4.72-1.38,.74-2.75,1.36-4.12,1.89-1.38,.53-2.67,.87-3.89,1.02-1.22,.16-2.2,.03-2.94-.39Zm-4.28-6.14c-.53,.63-.74,.94-.63,.94s1-.47,2.7-1.42c3.59-1.99,5.39-3.51,5.39-4.56-.21-.63-1.06-.42-2.54,.63-1.8,1.16-3.44,2.62-4.92,4.41Z"/>
        <path class="cls-1" d="M353.19,147.81c-2.54,.74-4.23,.42-5.08-.94-.63-1.26,0-3.15,1.9-5.66,.63-.84,.9-1.26,.79-1.26-.42,.21-1.27,.31-2.54,.31l-2.22,.16-2.38,2.52c-2.22,2.52-3.28,3.99-3.17,4.41,.11,.32,0,.47-.32,.47l-.32-.31c-.21-.1-.37-.21-.48-.32-.21-.31-.26-.73-.16-1.26l1.11-2.04c.63-.84,2.25-2.65,4.84-5.43,2.59-2.78,4.31-4.59,5.16-5.43,1.16-.94,1.9-1.26,2.22-.94,.74,.53-.37,2.31-3.33,5.35l-2.54,2.36,1.75-.16c2.01-.1,3.44-.52,4.28-1.26,2.22-2.1,3.65-2.83,4.28-2.2,.53,.42,.26,1.05-.79,1.89-1.17,.94-2.46,2.18-3.89,3.7-1.43,1.52-2.36,2.65-2.78,3.38-.53,1.57-.19,2.36,1.03,2.36s2.56-.37,4.05-1.1c2.75-1.05,6.82-3.46,12.22-7.24l3.01-2.05c.21-.1,.37-.1,.48,0,.1,.11,.1,.26,0,.47-.32,.42-2.86,2.26-7.62,5.51-3.7,2.62-6.88,4.2-9.52,4.72Z"/>
        <path class="cls-1" d="M369.37,150.48c0-1.47,1.16-3.78,3.49-6.92l1.11-1.57-.16,.16c-.11,0-.29,.08-.56,.24-.26,.16-.5,.29-.71,.39-3.17,1.68-5.13,2.52-5.87,2.52-.42,0-.74-.1-.95-.31-.74-1.05-.05-2.88,2.06-5.51,2.22-3.04,3.97-4.82,5.24-5.35l.48-.16c.42,0,.74,.31,.95,.94,.21,.31-.53,1.26-2.22,2.83-.85,.74-1.72,1.6-2.62,2.6-.9,1-1.61,1.84-2.14,2.52-.53,.68-.74,1.08-.63,1.18,0,.11,.45-.02,1.35-.39,.9-.37,1.96-.87,3.17-1.5,1.21-.63,2.25-1.2,3.09-1.73,.95-.63,2.17-1.57,3.65-2.83,1.69-1.57,2.7-2.2,3.01-1.89,.32,.42,.37,.84,.16,1.26-.21,.42-1.17,1.42-2.86,2.99-4.55,4.51-7.19,7.71-7.93,9.6-.95,2.41,.79,2.67,5.24,.79,5.61-2.41,12.69-6.77,21.26-13.06,.42-.21,.79-.16,1.11,.16-3.07,2.52-6.82,5.09-11.27,7.71-5.39,3.46-9.47,5.66-12.22,6.61-3.49,1.36-5.24,.94-5.24-1.26Z"/>
        <path class="cls-1" d="M400.47,149.54c-.42-.42-.58-.89-.48-1.42,.21-2.31,2.59-5.72,7.14-10.23l.95-1.1h-.32c-.63,.31-1.01,.53-1.11,.63-5.61,4.62-9.42,6.66-11.42,6.14-1.48-.52-1.69-1.68-.63-3.46,.63-.84,1.11-1.42,1.43-1.73l.48-.47c1.06-1.05,1.69-1.26,1.9-.63,.1,.21-.37,1-1.43,2.36-1.38,1.57-1.9,2.52-1.59,2.83,.21,.21,1.21-.16,3.02-1.1,2.11-.94,4.12-2.2,6.03-3.78l1.27-.94-.63-.79c-1.59-1.47-1.06-3.51,1.59-6.14,3.07-2.83,4.97-3.36,5.71-1.57,.32,.74,.1,1.79-.63,3.15-.32,.63-1.17,1.89-2.54,3.78l-.48,.47,.48-.16c.21-.21,.61-.31,1.19-.31s.98,.11,1.19,.31c.21,.31-.58,1.31-2.38,2.99-4.12,4.09-6.77,7.29-7.93,9.6l-.48,.94,.63,.16c.32,0,1.27-.26,2.86-.79,.74-.31,2.12-1.1,4.13-2.36,2.86-1.78,6.93-4.56,12.22-8.34,.42-.32,.95-.47,1.59-.47l.16,.16-.63,.63-11.74,8.18c-1.9,1.26-3.39,2.15-4.44,2.68-2.65,1.36-4.34,1.63-5.08,.79Zm5.24-13.85c.53,.21,1.32-.31,2.38-1.57,2.33-2.52,3.49-4.35,3.49-5.51,0-.21-.37-.21-1.11,0-1.59,.84-2.96,2.1-4.13,3.78-1.17,1.68-1.38,2.78-.63,3.3Z"/>
      </g>
    </g>
  </g>
</svg>