<?xml version="1.0" encoding="UTF-8"?>
<svg id="_Слой_2" data-name="Слой 2" xmlns="http://www.w3.org/2000/svg" viewBox="0 0 389.72 88.97">
  <defs>
    <style>
      .cls-1 {
        fill: #4a494a;
      }
    </style>
  </defs>
  <g id="Layer_1" data-name="Layer 1">
    <g>
      <path class="cls-1" d="M.52,61.48c-1.3-4.71-.17-10.36,3.39-16.96,2.07-3.81,4.94-7.96,8.61-12.46,6.59-8.15,13.27-14.98,20.05-20.52,5.94-4.93,11.43-8.1,16.48-9.49,1.26-.35,2.23-.48,2.9-.4,1.09,.16,2.03,.59,2.79,1.3,.76,.71,1.19,1.53,1.29,2.45,.19,2.86-1.71,7.26-5.7,13.19-2.5,3.73-6.33,8.31-11.51,13.75-4.26,4.58-7.36,6.89-9.29,6.9-.42,0-.8-.12-1.14-.37-.34-.25-.51-.54-.51-.88,0-.34,.08-.51,.25-.51,.5,0,.76,.16,.76,.5,0,.25,.21,.33,.63,.25,1.34-.43,3.52-2.09,6.53-4.98,4.68-4.42,9.02-9.51,13.01-15.28,2.08-3.05,3.66-5.97,4.73-8.76,1.24-3.3,1.26-5.27,.08-5.94-1.52-.91-4.84,.13-9.96,3.12-7.88,4.53-16.7,12.49-26.46,23.86-7.01,8.06-11.63,14.93-13.85,20.59-1.57,3.97-2.15,7.33-1.75,10.06,.4,2.74,1.66,4.39,3.77,4.96,2.2,.66,6.15-.43,11.85-3.26,6.71-3.34,15-9.1,24.88-17.27,.42-.34,.71-.43,.88-.26,.25,.25,.09,.55-.5,.89-.08,.09-1.88,1.47-5.4,4.15-3.52,2.68-6.53,4.92-9.04,6.71-2.51,1.79-4.57,3.16-6.16,4.1-2.85,1.63-5.2,2.87-7.05,3.73-1.85,.86-3.88,1.55-6.11,2.07-2.23,.52-4.04,.35-5.44-.52-1.4-.87-2.4-2.44-3.01-4.71Z"/>
      <path class="cls-1" d="M40,51.54c-1.1-1.08-1.03-2.52,.22-4.3,.91-1.61,2.25-2.8,4.01-3.57,1.01-.43,1.72-.43,2.15-.02,.34,.25,.4,.67,.2,1.26-.21,.59-.6,1.1-1.19,1.53-1.17,.85-2.39,1.37-3.65,1.55-.34,0-.63,.22-.88,.64-1,1.78-.53,2.79,1.42,3.02,3.79-.03,8.49-2.05,14.1-6.06l1.51-1.02c.08-.08,.21-.08,.38,0,.17,.08,.21,.21,.13,.38-3.1,2.55-6.62,4.61-10.56,6.16-3.95,1.55-6.56,1.7-7.83,.45Zm1.86-4.31c.59,0,1.43-.35,2.52-1.03,.75-.51,1.25-1.06,1.5-1.66,.08-.25,0-.38-.26-.38l-1.38,.77c-1.68,1.28-2.47,2.04-2.38,2.3Z"/>
      <path class="cls-1" d="M31.47,88.89c-.08,.17-.29,.09-.63-.25l-.38-.12,1.12-1.78,11.96-19.94c10.05-16.26,17.46-27.4,22.21-33.43,.58-.68,1-.98,1.26-.9,.25,0,.38,.04,.38,.12,0,.42-1.49,2.84-4.49,7.24l-3,4.32,.26,.38,.26,.5,2.26-1.28c2.18-1.11,3.78-1.76,4.79-1.94,.84,0,1.35,.24,1.52,.75,.34,.84-.4,2.49-2.23,4.95l-1.63,1.91c3.21,1.24,7.12,.53,11.73-2.12,1.42-.85,2.89-1.84,4.4-2.94,.17-.17,.31-.21,.44-.13,.13,.08,.15,.21,.07,.38l-.63,.64c-1.84,1.45-3.39,2.47-4.65,3.07-4.36,2.31-8.4,2.9-12.12,1.75l-1.13,1.27c-3.01,2.89-5.07,3.37-6.18,1.44-.43-.84-.44-1.93-.03-3.29l.12-.63c-.17,.25-1.17,1.7-3,4.32-4.25,5.93-9.03,13.43-14.34,22.49-4.98,8.21-7.77,12.62-8.35,13.21Zm26.74-35.74c.67,.16,1.47-.14,2.39-.91,.25-.17,.61-.47,1.07-.89,.46-.42,.86-.81,1.19-1.15l.37-.63c-1.1-.58-2.08-1.5-2.93-2.76-.09-.25-.34-.21-.76,.13-.42,.34-.84,.98-1.25,1.91-.91,2.62-.93,4.05-.09,4.3Zm5.65-4.22c.08,0,.31-.21,.69-.64,.38-.42,.81-.96,1.31-1.59,.5-.64,.88-1.17,1.12-1.59,.5-.68,.83-1.27,1-1.78,.16-.42,.2-.68,.12-.76-.25-.25-1.64,.23-4.16,1.43-2.01,1.11-3.02,1.88-3.01,2.3,0,.25,.36,.76,1.09,1.51,.72,.75,1.34,1.13,1.84,1.12Z"/>
      <path class="cls-1" d="M97.69,44.09c.33-.09,.55,0,.63,.25l-.5,.51-2.26,1.79-3.27,2.3-3.64,2.43c-.25,.09-.78,.39-1.57,.9-.8,.51-1.45,.9-1.95,1.15-1.34,.77-2.54,1.22-3.59,1.36-1.05,.13-1.83-.03-2.34-.49-.51-.46-.64-1.15-.4-2.08,.24-1.01,.99-2.24,2.24-3.68,1-1.02,2.47-2.25,4.39-3.7,1.42-.94,2.22-1.66,2.38-2.17,.08-.34-.13-.46-.64-.37-1.6,.27-3.4,1.12-5.41,2.57-.08,0-.31,.17-.69,.51-.38,.34-.73,.6-1.07,.77l-.5,.26c-.26-.25-.34-.42-.26-.5,1.25-1.02,2.34-1.83,3.27-2.43,1.34-.94,2.6-1.52,3.78-1.74,1.18-.22,1.94,.05,2.28,.8,.34,.67-.7,1.99-3.12,3.94-3.85,3.07-5.77,5.32-5.76,6.75,0,.51,.18,.84,.51,1.01,.34,.17,.91,.1,1.7-.2,.8-.3,1.49-.6,2.08-.9,.59-.3,1.42-.75,2.52-1.35l2.14-1.28c.84-.51,2.09-1.36,3.77-2.56l3.64-2.68c1-.77,1.55-1.15,1.63-1.15Z"/>
      <path class="cls-1" d="M94.2,51.07c-1.1-1.09-1.03-2.52,.22-4.3,.91-1.61,2.25-2.8,4.01-3.57,1.01-.43,1.72-.43,2.15-.02,.34,.25,.4,.67,.2,1.26-.21,.59-.6,1.1-1.19,1.53-1.17,.85-2.39,1.37-3.65,1.55-.34,0-.63,.22-.88,.64-1,1.78-.53,2.79,1.42,3.02,3.79-.03,8.49-2.05,14.1-6.06l1.51-1.02c.08-.08,.21-.08,.38,0,.17,.08,.21,.21,.13,.38-3.1,2.55-6.62,4.61-10.56,6.16-3.95,1.55-6.56,1.7-7.83,.45Zm1.86-4.31c.59,0,1.43-.35,2.52-1.03,.75-.51,1.25-1.06,1.5-1.66,.08-.25,0-.38-.26-.38l-1.38,.77c-1.68,1.28-2.47,2.04-2.38,2.3Z"/>
      <path class="cls-1" d="M113.72,57.61c1.61,.91,3.8,.71,6.57-.62,2.77-1.33,5.28-3.14,7.54-5.44,.83-.85,1.75-1.99,2.75-3.44,.33-.51,.46-.84,.37-1.01,0-.08,.04-.13,.12-.13,.84,0,.43,1.09-1.24,3.3-2.42,3.14-5.45,5.57-9.1,7.28-3.65,1.72-6.33,1.7-8.03-.06-.51-.67-.83-1.36-.97-2.08-.13-.71,.03-1.52,.49-2.41,.45-.89,.79-1.5,1-1.84,.21-.34,.69-1.02,1.44-2.03l.87-1.27-.12,.13c-.08,0-.23,.07-.44,.19-.21,.13-.4,.24-.57,.32-2.52,1.37-4.07,2.06-4.66,2.06-.34,0-.59-.08-.76-.25-.6-.84-.06-2.32,1.6-4.44,1.75-2.46,3.13-3.9,4.13-4.33l.38-.13c.34,0,.59,.25,.76,.75,.17,.25-.41,1.01-1.75,2.29-.67,.6-1.36,1.3-2.07,2.1-.71,.81-1.27,1.49-1.69,2.04-.42,.55-.58,.87-.5,.95,0,.08,.36-.02,1.07-.33,.71-.3,1.55-.71,2.52-1.22,.96-.51,1.78-.98,2.45-1.41,.75-.51,1.72-1.28,2.89-2.3,1.34-1.27,2.13-1.79,2.39-1.54,.34,.25,.38,.59,.14,1.01-.25,.42-1,1.23-2.25,2.42-1.51,1.36-2.88,2.89-4.13,4.59-2.58,3.56-2.98,5.84-1.21,6.83Zm8.56-18.65c-1.1,0-1.9-.28-2.41-.86-.77-.92-.86-1.68-.27-2.27,.25-.26,.48-.36,.69-.32s.4,.12,.57,.25c.17,.12,.21,.27,.13,.44-.33,.76-.33,1.31,.01,1.64,.34,.33,.97,.46,1.9,.36,1.18-.18,1.77-.39,1.76-.65,0-.08,.04-.13,.12-.13,.17,0,.25,.12,.26,.38,0,.17-.04,.3-.12,.38-.5,.51-1.38,.77-2.65,.78Z"/>
      <path class="cls-1" d="M153.02,57.27c1.61,.91,3.8,.71,6.57-.62,2.77-1.33,5.28-3.14,7.54-5.44,.83-.85,1.75-1.99,2.75-3.44,.33-.51,.46-.84,.37-1.01,0-.08,.04-.13,.12-.13,.84,0,.43,1.09-1.24,3.3-2.42,3.14-5.45,5.57-9.1,7.28-3.65,1.72-6.33,1.7-8.03-.06-.51-.67-.83-1.36-.97-2.08-.13-.71,.03-1.52,.49-2.41,.45-.89,.79-1.5,1-1.84,.21-.34,.69-1.02,1.44-2.03l.87-1.27-.12,.13c-.08,0-.23,.07-.44,.19-.21,.13-.4,.24-.57,.32-2.52,1.37-4.07,2.06-4.66,2.06-.34,0-.59-.08-.76-.25-.6-.84-.06-2.32,1.6-4.44,1.75-2.46,3.12-3.9,4.13-4.33l.38-.13c.34,0,.59,.25,.76,.75,.17,.25-.41,1.02-1.75,2.29-.67,.6-1.36,1.3-2.07,2.1-.71,.81-1.27,1.49-1.69,2.04-.42,.55-.58,.87-.5,.95,0,.08,.36-.02,1.07-.32,.71-.3,1.55-.71,2.52-1.22,.96-.51,1.78-.98,2.45-1.41,.75-.51,1.72-1.28,2.89-2.3,1.34-1.28,2.13-1.79,2.39-1.54,.34,.25,.38,.59,.14,1.01-.25,.42-1,1.23-2.25,2.42-1.51,1.36-2.88,2.89-4.13,4.58-2.58,3.56-2.98,5.84-1.21,6.83Z"/>
      <path class="cls-1" d="M190.32,59.86c-1.3-4.71-.17-10.36,3.39-16.96,2.07-3.81,4.94-7.96,8.61-12.46,6.59-8.14,13.27-14.98,20.05-20.52,5.94-4.93,11.43-8.1,16.47-9.49,1.26-.35,2.23-.48,2.9-.4,1.09,.16,2.03,.59,2.79,1.3,.76,.71,1.19,1.53,1.29,2.45,.19,2.86-1.71,7.26-5.7,13.19-2.5,3.73-6.33,8.31-11.51,13.75-4.26,4.58-7.36,6.89-9.29,6.9-.42,0-.8-.12-1.14-.37-.34-.25-.51-.54-.51-.88,0-.34,.08-.51,.25-.51,.51,0,.76,.16,.76,.5,0,.25,.21,.33,.63,.25,1.34-.43,3.52-2.09,6.53-4.98,4.68-4.42,9.02-9.51,13.01-15.28,2.08-3.05,3.66-5.97,4.73-8.76,1.24-3.3,1.26-5.28,.08-5.94-1.52-.91-4.84,.13-9.96,3.12-7.88,4.53-16.7,12.49-26.46,23.86-7.01,8.06-11.63,14.93-13.85,20.59-1.57,3.97-2.15,7.33-1.75,10.06,.4,2.74,1.66,4.39,3.77,4.96,2.2,.66,6.14-.43,11.85-3.26,6.71-3.34,15-9.1,24.88-17.27,.42-.34,.71-.43,.88-.26,.25,.25,.09,.55-.5,.89-.08,.09-1.88,1.47-5.4,4.15-3.52,2.68-6.53,4.92-9.04,6.71-2.51,1.79-4.57,3.16-6.16,4.1-2.85,1.63-5.2,2.87-7.05,3.73-1.85,.86-3.88,1.55-6.11,2.07-2.23,.52-4.04,.35-5.44-.52-1.4-.87-2.4-2.44-3.01-4.71Z"/>
      <path class="cls-1" d="M248.39,51.53c1.35,.24,5.42-2.32,12.19-7.69,.92-.77,1.59-1.23,2.01-1.41,.17-.08,.29-.06,.38,.06,.08,.12,.08,.23,0,.32-.17,.17-.88,.77-2.13,1.79-.67,.51-1.49,1.13-2.45,1.85-.96,.73-1.72,1.3-2.26,1.73-.55,.43-1.17,.89-1.88,1.41-.71,.51-1.28,.9-1.7,1.15-.42,.26-.9,.53-1.45,.83-.55,.3-.99,.47-1.32,.52-.34,.05-.72,.09-1.14,.14-.42,.05-.78-.01-1.08-.18-.3-.17-.62-.42-.95-.75-.85-.83-1.12-2.26-.79-4.29,.08-.25,.2-.63,.37-1.14,.16-.51,.27-.87,.31-1.08,.04-.21,.02-.4-.07-.57-.67,.51-1.34,1.07-2.01,1.66-2.59,2.21-3.89,3.7-3.88,4.46,0,.17-.08,.25-.25,.26-.51,0-.68-.2-.51-.63,.16-.51,1.24-2.33,3.24-5.46,1.83-2.88,2.82-4.62,2.99-5.21,.08-.42,.04-.67-.13-.76-.17-.08-.55-.04-1.14,.14-3.2,.7-6.97,2.88-11.32,6.54-.42,.34-1.03,.92-1.82,1.72-.79,.81-1.5,1.53-2.13,2.17-.63,.64-.94,1-.94,1.08l-.12,.25c-.08,.09-.23,.07-.44-.06-.21-.12-.32-.23-.32-.31,0-.51,1.37-2.41,4.12-5.72,1-1.19,1.83-2.12,2.5-2.8,.83-.85,1.42-1.19,1.76-1.03,.08,.08,.13,.21,.13,.38,0,.42-.54,1.19-1.62,2.29l-.25,.25c.17-.08,.58-.38,1.26-.9,3.68-3.06,6.87-4.61,9.57-4.63,.76,0,1.35,.14,1.77,.43,.42,.29,.59,.73,.52,1.32-.08,.67-.7,1.82-1.87,3.43-.42,.51-.79,1.02-1.12,1.53l-.12,.13c.17-.08,.29-.17,.38-.26,.84-.59,1.42-.9,1.76-.9,.25,0,.44,.04,.57,.12,.13,.08,.19,.21,.19,.38,0,.17,0,.32,0,.44,0,.13-.06,.34-.18,.63-.12,.3-.18,.53-.18,.7-.81,3.55-.29,5.44,1.56,5.67Z"/>
      <path class="cls-1" d="M258.73,49.67c-1.1-1.08-1.03-2.52,.22-4.3,.91-1.61,2.25-2.8,4.01-3.57,1.01-.43,1.72-.43,2.15-.02,.34,.25,.4,.67,.2,1.26-.21,.59-.6,1.1-1.19,1.53-1.17,.85-2.39,1.37-3.65,1.55-.34,0-.63,.22-.88,.64-1,1.78-.53,2.79,1.42,3.02,3.79-.03,8.49-2.05,14.1-6.06l1.51-1.02c.08-.08,.21-.08,.38,0,.17,.08,.21,.21,.13,.38-3.1,2.55-6.62,4.61-10.56,6.16-3.95,1.55-6.56,1.7-7.83,.45Zm1.86-4.31c.59,0,1.43-.35,2.52-1.03,.75-.51,1.25-1.06,1.5-1.66,.08-.25,0-.38-.26-.38l-1.38,.77c-1.68,1.28-2.47,2.04-2.38,2.3Z"/>
      <path class="cls-1" d="M265.8,78.42c-.59,0-.89-.42-.89-1.26-.01-1.26,1.81-4.99,5.46-11.17,3.65-6.18,7.9-12.71,12.72-19.57l2.62-3.81-1.26,.77c-3.69,2.56-6.29,3.55-7.81,2.97-.68-.25-.89-1.04-.65-2.4,.25-.68,1.25-1.82,3-3.44,3.18-2.64,5.2-2.99,6.06-1.06,.34,.76,.31,1.47-.11,2.15l-.25,.51,.5-.26c1.42-.94,2.97-2.43,4.64-4.46,5-6.61,8.33-10.48,10.01-11.59,.75-.51,1.26-.56,1.52-.14,.17,.59-.2,1.44-1.12,2.54-1.17,1.44-3.25,3.78-6.26,7-2.84,2.89-4.84,5.18-6.01,6.88l1.13-.52c.17-.17,.42-.34,.75-.51,2.6-1.54,4.36-2.31,5.29-2.32,.51,0,.93,.23,1.27,.68,.34,.46,.47,.99,.39,1.58-.08,1.01-.91,2.37-2.49,4.07l-.88,.89,2.66,.36h.25c1.77-.02,3.49-.41,5.17-1.18,.67-.34,1.24-.66,1.7-.96,.46-.3,.92-.62,1.38-.96,.46-.34,.9-.64,1.32-.9,.42-.17,.63-.09,.63,.25-.08,.17-.31,.38-.69,.64-.38,.26-.61,.43-.69,.51-3.43,2.81-7.42,3.85-11.98,3.13-.42-.08-1.01,.09-1.76,.52-.67,.43-1.51,.69-2.52,.78-1.35,.09-2.19-.23-2.54-.99-.17-.5-.14-1.14,.11-1.9l.25-.89-.38,.38c-.67,.6-2.38,2.89-5.12,6.87-4.33,6.35-8.09,12.2-11.29,17.54-3.2,5.33-4.58,8.21-4.16,8.63,.09,.17,.13,.31,.13,.44,0,.13-.04,.19-.12,.19Zm11.6-32.83c.17,.17,1.47-.31,3.91-1.42,1.76-.94,2.85-1.92,3.26-2.93,.25-.84,.24-1.47-.02-1.9-.34-.33-1.14-.24-2.4,.27-.5,.26-.71,.47-.63,.64,0,.17-.21,.34-.63,.51-.08,.09-.21,.17-.38,.26-.17,.09-.32,.17-.44,.26-.13,.09-.23,.17-.31,.26-.42,.43-.63,.55-.63,.38-.17-.17-.49,0-.94,.51-.46,.51-.79,1.08-1,1.71-.21,.63-.14,1.12,.2,1.45Zm12.9,1.15l.88-.39c-1.36-1.08-2.12-1.88-2.29-2.38l-.38-.63c-.34,0-.79,.85-1.37,2.54-.5,.93-.11,1.39,1.15,1.38l2.02-.52Zm1.63-1.15c.42,0,1.34-.94,2.76-2.8,.83-1.19,1.25-2.07,1.24-2.66,0-.25-.17-.38-.51-.38-.76,0-2.27,.65-4.53,1.93-.75,.43-1.24,.73-1.45,.9-.21,.17-.29,.34-.25,.51,.04,.17,.19,.46,.45,.88,.68,1.09,1.45,1.63,2.29,1.62Zm3.68-13.05c1.42-1.44,2.84-3.1,4.25-4.96,.41-.68,.62-1.06,.62-1.14-.09-.08-.48,.3-1.19,1.15-.71,.85-1.61,1.95-2.69,3.31l-1.87,2.54c.08-.08,.38-.38,.88-.89Z"/>
      <path class="cls-1" d="M307.15,51.28c-.59-.33-.89-.96-.9-1.89,0-.93,.15-1.81,.48-2.66l.25-.63-.76,.39c-.42,.34-.8,.6-1.13,.77-.17,.09-.46,.26-.88,.51-.42,.26-.75,.47-1,.64-.59,.34-1.12,.33-1.58-.05-.46-.38-.58-.94-.33-1.7,.33-.84,1.23-1.86,2.69-3.06,1.46-1.19,2.78-1.96,3.96-2.31,1.01-.26,1.73-.06,2.15,.61,.17,.25,.3,.34,.38,.25,.42-.17,.71-.09,.89,.25l-.12,.13c-.08,.17-.17,.32-.25,.44-.08,.13-.17,.28-.25,.45-1.67,1.7-2.75,3.23-3.25,4.58-.41,1.35-.36,2.24,.15,2.65,.76,.5,2.48,.19,5.17-.93,2.77-1.12,6.21-3.25,10.31-6.41,1.42-1.11,2.09-1.41,2.01-.9-.08,.34-1.23,1.32-3.45,2.94-2.22,1.62-4.17,2.9-5.84,3.84-1.09,.6-2.18,1.11-3.27,1.54-1.09,.43-2.12,.71-3.09,.85-.97,.13-1.75,.04-2.34-.3Zm-3.45-4.9c-.42,.51-.58,.76-.5,.76,.08,0,.79-.39,2.14-1.16,2.85-1.62,4.27-2.86,4.27-3.7-.17-.5-.85-.33-2.02,.52-1.43,.94-2.72,2.13-3.89,3.57Z"/>
      <path class="cls-1" d="M330.14,50.7c-2.02,.61-3.37,.37-4.05-.72-.51-1.01-.02-2.53,1.48-4.56,.5-.68,.71-1.02,.62-1.02-.34,.17-1.01,.26-2.02,.27l-1.77,.14-1.88,2.04c-1.75,2.04-2.58,3.23-2.5,3.56,.09,.25,0,.38-.25,.38l-.25-.25c-.17-.08-.3-.17-.38-.25-.17-.25-.21-.59-.13-1.01l.87-1.65c.5-.68,1.77-2.14,3.82-4.39,2.04-2.25,3.4-3.71,4.07-4.39,.92-.77,1.51-1.03,1.76-.77,.59,.42-.28,1.86-2.62,4.32l-2.01,1.91,1.39-.14c1.6-.1,2.73-.44,3.4-1.04,1.75-1.7,2.89-2.3,3.4-1.8,.42,.33,.22,.84-.62,1.52-.92,.77-1.94,1.77-3.07,3-1.13,1.23-1.86,2.14-2.19,2.74-.41,1.27-.13,1.9,.84,1.89,.97,0,2.04-.31,3.21-.91,2.18-.86,5.41-2.83,9.68-5.9l2.39-1.66c.17-.08,.29-.09,.38,0,.08,.08,.08,.21,0,.38-.25,.34-2.26,1.83-6.03,4.48-2.93,2.13-5.45,3.42-7.55,3.86Z"/>
      <path class="cls-1" d="M343.05,52.74c-.01-1.18,.9-3.04,2.73-5.58l.87-1.27-.12,.13c-.08,0-.23,.07-.44,.19-.21,.13-.4,.24-.57,.32-2.52,1.37-4.07,2.06-4.66,2.06-.34,0-.59-.08-.76-.25-.6-.84-.06-2.32,1.6-4.44,1.75-2.46,3.13-3.9,4.13-4.33l.38-.13c.34,0,.59,.25,.76,.75,.17,.25-.41,1.02-1.75,2.29-.67,.6-1.36,1.3-2.07,2.1-.71,.81-1.27,1.49-1.69,2.04-.42,.55-.58,.87-.5,.95,0,.08,.36-.02,1.07-.33,.71-.3,1.55-.71,2.52-1.22,.96-.51,1.78-.98,2.45-1.41,.75-.51,1.72-1.28,2.89-2.3,1.34-1.27,2.13-1.79,2.39-1.54,.26,.33,.3,.67,.14,1.01-.17,.34-.92,1.15-2.25,2.42-3.59,3.66-5.68,6.24-6.25,7.76-.74,1.95,.65,2.14,4.17,.6,4.45-1.97,10.06-5.52,16.84-10.63,.33-.17,.63-.13,.89,.12-2.43,2.04-5.4,4.13-8.92,6.27-4.27,2.82-7.5,4.61-9.69,5.39-2.77,1.12-4.16,.79-4.18-.98Z"/>
      <path class="cls-1" d="M371.99,53.25c-2.69,.45-4.17-.09-4.44-1.6-.18-.84,.15-2.02,.98-3.55,1-1.69,1.79-2.84,2.37-3.43l2.13-2.29,.75-.89h-.25c-.5,.26-.8,.43-.88,.52-4.43,3.75-7.45,5.42-9.06,5.01-1.18-.41-1.36-1.33-.53-2.78,.5-.68,.87-1.15,1.12-1.4l.38-.38c.83-.85,1.34-1.02,1.51-.52,.08,.17-.29,.8-1.12,1.91-1.09,1.27-1.5,2.03-1.24,2.29,.17,.17,.97-.13,2.39-.91,1.68-.77,3.27-1.8,4.78-3.07l1-.77-.51-.63c-1.27-1.17-.87-2.82,1.22-4.94,1-1.02,1.94-1.66,2.83-1.92,.88-.26,1.45-.05,1.71,.62,.26,.59,.09,1.43-.48,2.53-.25,.51-.92,1.53-2,3.05l-.38,.38,.38-.13c.17-.17,.48-.26,.95-.26,.46,0,.78,.08,.95,.25,.17,.25-.46,1.06-1.88,2.42l-2.63,2.8c-2.59,2.63-3.84,4.54-3.74,5.72,.43,1.09,1.82,1.46,4.18,1.1,2.36-.36,4.71-1.13,7.06-2.33,3.69-1.8,6.37-3.51,8.04-5.12,.92-.77,1.38-1.7,1.37-2.79,0-.08,.04-.13,.13-.13,.42,0,.63,.29,.64,.88,.01,1.26-1.79,3.09-5.39,5.48-1.51,1.02-3.54,2.05-6.1,3.09-2.56,1.03-4.64,1.64-6.24,1.82Zm-.11-12.64c.42,.17,1.05-.26,1.88-1.28,1.83-2.04,2.75-3.52,2.74-4.45,0-.17-.3-.17-.88,0-1.26,.69-2.34,1.71-3.26,3.06-.92,1.36-1.08,2.24-.48,2.66Z"/>
    </g>
  </g>
</svg>